<svg
	xmlns="http://www.w3.org/2000/svg" width="1073" height="357.6666666666667" viewBox="0 0 1073 357.6666666666667">
	<rect x="0" y="0" width="1073" height="357" fill="white"/>
	<g>
		<line x1="102" y1="65" x2="336" y2="58" stroke="black"/>
		<line x1="336" y1="58" x2="329" y2="297" stroke="black"/>
		<line x1="329" y1="297" x2="100" y2="294" stroke="black"/>
		<line x1="100" y1="294" x2="102" y2="65" stroke="black"/>
	</g>
	<g>
		<line x1="99" y1="62" x2="333" y2="71" stroke="black"/>
		<line x1="333" y1="71" x2="334" y2="298" stroke="black"/>
		<line x1="334" y1="298" x2="106" y2="285" stroke="black"/>
		<line x1="106" y1="285" x2="99" y2="62" stroke="black"/>
	</g>
	<g>
		<line x1="105" y1="66" x2="329" y2="69" stroke="black"/>
		<line x1="329" y1="69" x2="330" y2="287" stroke="black"/>
		<line x1="330" y1="287" x2="94" y2="295" stroke="black"/>
		<line x1="94" y1="295" x2="105" y2="66" stroke="black"/>
	</g>
	<g>
		<line x1="108" y1="71" x2="323" y2="71" stroke="black"/>
		<line x1="323" y1="71" x2="319" y2="286" stroke="black"/>
		<line x1="319" y1="286" x2="107" y2="282" stroke="black"/>
		<line x1="107" y1="282" x2="108" y2="71" stroke="black"/>
	</g>
	<g>
		<line x1="114" y1="74" x2="322" y2="79" stroke="black"/>
		<line x1="322" y1="79" x2="315" y2="284" stroke="black"/>
		<line x1="315" y1="284" x2="107" y2="288" stroke="black"/>
		<line x1="107" y1="288" x2="114" y2="74" stroke="black"/>
	</g>
	<g>
		<line x1="108" y1="78" x2="317" y2="77" stroke="black"/>
		<line x1="317" y1="77" x2="316" y2="277" stroke="black"/>
		<line x1="316" y1="277" x2="113" y2="278" stroke="black"/>
		<line x1="113" y1="278" x2="108" y2="78" stroke="black"/>
	</g>
	<g>
		<line x1="114" y1="81" x2="307" y2="85" stroke="black"/>
		<line x1="307" y1="85" x2="309" y2="274" stroke="black"/>
		<line x1="309" y1="274" x2="119" y2="277" stroke="black"/>
		<line x1="119" y1="277" x2="114" y2="81" stroke="black"/>
	</g>
	<g>
		<line x1="125" y1="83" x2="303" y2="82" stroke="black"/>
		<line x1="303" y1="82" x2="305" y2="266" stroke="black"/>
		<line x1="305" y1="266" x2="119" y2="269" stroke="black"/>
		<line x1="119" y1="269" x2="125" y2="83" stroke="black"/>
	</g>
	<g>
		<line x1="124" y1="87" x2="296" y2="95" stroke="black"/>
		<line x1="296" y1="95" x2="304" y2="269" stroke="black"/>
		<line x1="304" y1="269" x2="131" y2="265" stroke="black"/>
		<line x1="131" y1="265" x2="124" y2="87" stroke="black"/>
	</g>
	<g>
		<line x1="133" y1="89" x2="298" y2="91" stroke="black"/>
		<line x1="298" y1="91" x2="294" y2="260" stroke="black"/>
		<line x1="294" y1="260" x2="132" y2="261" stroke="black"/>
		<line x1="132" y1="261" x2="133" y2="89" stroke="black"/>
	</g>
	<g>
		<line x1="131" y1="97" x2="290" y2="98" stroke="black"/>
		<line x1="290" y1="98" x2="290" y2="254" stroke="black"/>
		<line x1="290" y1="254" x2="132" y2="252" stroke="black"/>
		<line x1="132" y1="252" x2="131" y2="97" stroke="black"/>
	</g>
	<g>
		<line x1="139" y1="100" x2="293" y2="100" stroke="black"/>
		<line x1="293" y1="100" x2="295" y2="256" stroke="black"/>
		<line x1="295" y1="256" x2="134" y2="261" stroke="black"/>
		<line x1="134" y1="261" x2="139" y2="100" stroke="black"/>
	</g>
	<g>
		<line x1="141" y1="101" x2="286" y2="103" stroke="black"/>
		<line x1="286" y1="103" x2="288" y2="256" stroke="black"/>
		<line x1="288" y1="256" x2="141" y2="258" stroke="black"/>
		<line x1="141" y1="258" x2="141" y2="101" stroke="black"/>
	</g>
	<g>
		<line x1="146" y1="108" x2="289" y2="110" stroke="black"/>
		<line x1="289" y1="110" x2="290" y2="251" stroke="black"/>
		<line x1="290" y1="251" x2="140" y2="251" stroke="black"/>
		<line x1="140" y1="251" x2="146" y2="108" stroke="black"/>
	</g>
	<g>
		<line x1="148" y1="113" x2="281" y2="108" stroke="black"/>
		<line x1="281" y1="108" x2="282" y2="245" stroke="black"/>
		<line x1="282" y1="245" x2="143" y2="249" stroke="black"/>
		<line x1="143" y1="249" x2="148" y2="113" stroke="black"/>
	</g>
	<g>
		<line x1="148" y1="119" x2="275" y2="113" stroke="black"/>
		<line x1="275" y1="113" x2="279" y2="239" stroke="black"/>
		<line x1="279" y1="239" x2="153" y2="241" stroke="black"/>
		<line x1="153" y1="241" x2="148" y2="119" stroke="black"/>
	</g>
	<g>
		<line x1="160" y1="124" x2="271" y2="124" stroke="black"/>
		<line x1="271" y1="124" x2="271" y2="234" stroke="black"/>
		<line x1="271" y1="234" x2="160" y2="237" stroke="black"/>
		<line x1="160" y1="237" x2="160" y2="124" stroke="black"/>
	</g>
	<g>
		<line x1="161" y1="123" x2="268" y2="126" stroke="black"/>
		<line x1="268" y1="126" x2="267" y2="233" stroke="black"/>
		<line x1="267" y1="233" x2="163" y2="234" stroke="black"/>
		<line x1="163" y1="234" x2="161" y2="123" stroke="black"/>
	</g>
	<g>
		<line x1="164" y1="128" x2="262" y2="132" stroke="black"/>
		<line x1="262" y1="132" x2="262" y2="226" stroke="black"/>
		<line x1="262" y1="226" x2="163" y2="226" stroke="black"/>
		<line x1="163" y1="226" x2="164" y2="128" stroke="black"/>
	</g>
	<g>
		<line x1="171" y1="136" x2="257" y2="136" stroke="black"/>
		<line x1="257" y1="136" x2="259" y2="223" stroke="black"/>
		<line x1="259" y1="223" x2="169" y2="223" stroke="black"/>
		<line x1="169" y1="223" x2="171" y2="136" stroke="black"/>
	</g>
	<g>
		<line x1="175" y1="137" x2="254" y2="139" stroke="black"/>
		<line x1="254" y1="139" x2="255" y2="218" stroke="black"/>
		<line x1="255" y1="218" x2="173" y2="217" stroke="black"/>
		<line x1="173" y1="217" x2="175" y2="137" stroke="black"/>
	</g>
	<g>
		<line x1="178" y1="142" x2="249" y2="142" stroke="black"/>
		<line x1="249" y1="142" x2="251" y2="216" stroke="black"/>
		<line x1="251" y1="216" x2="177" y2="216" stroke="black"/>
		<line x1="177" y1="216" x2="178" y2="142" stroke="black"/>
	</g>
	<g>
		<line x1="181" y1="147" x2="245" y2="147" stroke="black"/>
		<line x1="245" y1="147" x2="247" y2="208" stroke="black"/>
		<line x1="247" y1="208" x2="183" y2="209" stroke="black"/>
		<line x1="183" y1="209" x2="181" y2="147" stroke="black"/>
	</g>
	<g>
		<line x1="182" y1="147" x2="244" y2="146" stroke="black"/>
		<line x1="244" y1="146" x2="245" y2="207" stroke="black"/>
		<line x1="245" y1="207" x2="182" y2="208" stroke="black"/>
		<line x1="182" y1="208" x2="182" y2="147" stroke="black"/>
	</g>
	<g>
		<line x1="187" y1="152" x2="242" y2="150" stroke="black"/>
		<line x1="242" y1="150" x2="240" y2="204" stroke="black"/>
		<line x1="240" y1="204" x2="186" y2="205" stroke="black"/>
		<line x1="186" y1="205" x2="187" y2="152" stroke="black"/>
	</g>
	<g>
		<line x1="187" y1="152" x2="240" y2="153" stroke="black"/>
		<line x1="240" y1="153" x2="241" y2="205" stroke="black"/>
		<line x1="241" y1="205" x2="188" y2="205" stroke="black"/>
		<line x1="188" y1="205" x2="187" y2="152" stroke="black"/>
	</g>
	<g>
		<line x1="190" y1="154" x2="239" y2="154" stroke="black"/>
		<line x1="239" y1="154" x2="239" y2="203" stroke="black"/>
		<line x1="239" y1="203" x2="190" y2="201" stroke="black"/>
		<line x1="190" y1="201" x2="190" y2="154" stroke="black"/>
	</g>
	<g>
		<line x1="195" y1="158" x2="235" y2="157" stroke="black"/>
		<line x1="235" y1="157" x2="234" y2="199" stroke="black"/>
		<line x1="234" y1="199" x2="193" y2="198" stroke="black"/>
		<line x1="193" y1="198" x2="195" y2="158" stroke="black"/>
	</g>
	<g>
		<line x1="198" y1="162" x2="230" y2="162" stroke="black"/>
		<line x1="230" y1="162" x2="231" y2="194" stroke="black"/>
		<line x1="231" y1="194" x2="198" y2="194" stroke="black"/>
		<line x1="198" y1="194" x2="198" y2="162" stroke="black"/>
	</g>
	<g>
		<line x1="198" y1="162" x2="230" y2="162" stroke="black"/>
		<line x1="230" y1="162" x2="230" y2="194" stroke="black"/>
		<line x1="230" y1="194" x2="198" y2="194" stroke="black"/>
		<line x1="198" y1="194" x2="198" y2="162" stroke="black"/>
	</g>
	<g>
		<line x1="201" y1="164" x2="228" y2="164" stroke="black"/>
		<line x1="228" y1="164" x2="228" y2="192" stroke="black"/>
		<line x1="228" y1="192" x2="201" y2="192" stroke="black"/>
		<line x1="201" y1="192" x2="201" y2="164" stroke="black"/>
	</g>
	<g>
		<line x1="202" y1="165" x2="227" y2="166" stroke="black"/>
		<line x1="227" y1="166" x2="226" y2="190" stroke="black"/>
		<line x1="226" y1="190" x2="201" y2="190" stroke="black"/>
		<line x1="201" y1="190" x2="202" y2="165" stroke="black"/>
	</g>
	<g>
		<line x1="204" y1="167" x2="225" y2="167" stroke="black"/>
		<line x1="225" y1="167" x2="224" y2="188" stroke="black"/>
		<line x1="224" y1="188" x2="203" y2="189" stroke="black"/>
		<line x1="203" y1="189" x2="204" y2="167" stroke="black"/>
	</g>
	<g>
		<line x1="204" y1="168" x2="225" y2="168" stroke="black"/>
		<line x1="225" y1="168" x2="225" y2="188" stroke="black"/>
		<line x1="225" y1="188" x2="204" y2="188" stroke="black"/>
		<line x1="204" y1="188" x2="204" y2="168" stroke="black"/>
	</g>
	<g>
		<line x1="205" y1="169" x2="223" y2="169" stroke="black"/>
		<line x1="223" y1="169" x2="223" y2="187" stroke="black"/>
		<line x1="223" y1="187" x2="205" y2="187" stroke="black"/>
		<line x1="205" y1="187" x2="205" y2="169" stroke="black"/>
	</g>
	<g>
		<line x1="211" y1="175" x2="218" y2="174" stroke="black"/>
		<line x1="218" y1="174" x2="218" y2="181" stroke="black"/>
		<line x1="218" y1="181" x2="210" y2="182" stroke="black"/>
		<line x1="210" y1="182" x2="211" y2="175" stroke="black"/>
	</g>
	<g>
		<line x1="415" y1="65" x2="657" y2="66" stroke="black"/>
		<line x1="657" y1="66" x2="649" y2="293" stroke="black"/>
		<line x1="649" y1="293" x2="425" y2="295" stroke="black"/>
		<line x1="425" y1="295" x2="415" y2="65" stroke="black"/>
	</g>
	<g>
		<line x1="425" y1="56" x2="655" y2="67" stroke="black"/>
		<line x1="655" y1="67" x2="658" y2="291" stroke="black"/>
		<line x1="658" y1="291" x2="419" y2="291" stroke="black"/>
		<line x1="419" y1="291" x2="425" y2="56" stroke="black"/>
	</g>
	<g>
		<line x1="426" y1="58" x2="651" y2="58" stroke="black"/>
		<line x1="651" y1="58" x2="649" y2="300" stroke="black"/>
		<line x1="649" y1="300" x2="424" y2="287" stroke="black"/>
		<line x1="424" y1="287" x2="426" y2="58" stroke="black"/>
	</g>
	<g>
		<line x1="426" y1="56" x2="644" y2="67" stroke="black"/>
		<line x1="644" y1="67" x2="656" y2="296" stroke="black"/>
		<line x1="656" y1="296" x2="424" y2="288" stroke="black"/>
		<line x1="424" y1="288" x2="426" y2="56" stroke="black"/>
	</g>
	<g>
		<line x1="419" y1="71" x2="653" y2="66" stroke="black"/>
		<line x1="653" y1="66" x2="648" y2="286" stroke="black"/>
		<line x1="648" y1="286" x2="420" y2="295" stroke="black"/>
		<line x1="420" y1="295" x2="419" y2="71" stroke="black"/>
	</g>
	<g>
		<line x1="434" y1="66" x2="641" y2="76" stroke="black"/>
		<line x1="641" y1="76" x2="640" y2="284" stroke="black"/>
		<line x1="640" y1="284" x2="428" y2="288" stroke="black"/>
		<line x1="428" y1="288" x2="434" y2="66" stroke="black"/>
	</g>
	<g>
		<line x1="434" y1="78" x2="644" y2="78" stroke="black"/>
		<line x1="644" y1="78" x2="638" y2="281" stroke="black"/>
		<line x1="638" y1="281" x2="436" y2="278" stroke="black"/>
		<line x1="436" y1="278" x2="434" y2="78" stroke="black"/>
	</g>
	<g>
		<line x1="435" y1="80" x2="634" y2="76" stroke="black"/>
		<line x1="634" y1="76" x2="635" y2="282" stroke="black"/>
		<line x1="635" y1="282" x2="432" y2="278" stroke="black"/>
		<line x1="432" y1="278" x2="435" y2="80" stroke="black"/>
	</g>
	<g>
		<line x1="444" y1="87" x2="630" y2="79" stroke="black"/>
		<line x1="630" y1="79" x2="632" y2="270" stroke="black"/>
		<line x1="632" y1="270" x2="445" y2="275" stroke="black"/>
		<line x1="445" y1="275" x2="444" y2="87" stroke="black"/>
	</g>
	<g>
		<line x1="438" y1="89" x2="631" y2="80" stroke="black"/>
		<line x1="631" y1="80" x2="624" y2="274" stroke="black"/>
		<line x1="624" y1="274" x2="440" y2="272" stroke="black"/>
		<line x1="440" y1="272" x2="438" y2="89" stroke="black"/>
	</g>
	<g>
		<line x1="452" y1="88" x2="623" y2="91" stroke="black"/>
		<line x1="623" y1="91" x2="624" y2="272" stroke="black"/>
		<line x1="624" y1="272" x2="448" y2="269" stroke="black"/>
		<line x1="448" y1="269" x2="452" y2="88" stroke="black"/>
	</g>
	<g>
		<line x1="451" y1="89" x2="621" y2="96" stroke="black"/>
		<line x1="621" y1="96" x2="620" y2="266" stroke="black"/>
		<line x1="620" y1="266" x2="452" y2="267" stroke="black"/>
		<line x1="452" y1="267" x2="451" y2="89" stroke="black"/>
	</g>
	<g>
		<line x1="474" y1="117" x2="603" y2="110" stroke="black"/>
		<line x1="603" y1="110" x2="597" y2="241" stroke="black"/>
		<line x1="597" y1="241" x2="468" y2="245" stroke="black"/>
		<line x1="468" y1="245" x2="474" y2="117" stroke="black"/>
	</g>
	<g>
		<line x1="476" y1="117" x2="597" y2="115" stroke="black"/>
		<line x1="597" y1="115" x2="599" y2="238" stroke="black"/>
		<line x1="599" y1="238" x2="477" y2="242" stroke="black"/>
		<line x1="477" y1="242" x2="476" y2="117" stroke="black"/>
	</g>
	<g>
		<line x1="484" y1="128" x2="585" y2="125" stroke="black"/>
		<line x1="585" y1="125" x2="587" y2="232" stroke="black"/>
		<line x1="587" y1="232" x2="484" y2="229" stroke="black"/>
		<line x1="484" y1="229" x2="484" y2="128" stroke="black"/>
	</g>
	<g>
		<line x1="490" y1="129" x2="583" y2="133" stroke="black"/>
		<line x1="583" y1="133" x2="582" y2="223" stroke="black"/>
		<line x1="582" y1="223" x2="490" y2="223" stroke="black"/>
		<line x1="490" y1="223" x2="490" y2="129" stroke="black"/>
	</g>
	<g>
		<line x1="488" y1="132" x2="580" y2="132" stroke="black"/>
		<line x1="580" y1="132" x2="584" y2="223" stroke="black"/>
		<line x1="584" y1="223" x2="488" y2="222" stroke="black"/>
		<line x1="488" y1="222" x2="488" y2="132" stroke="black"/>
	</g>
	<g>
		<line x1="490" y1="132" x2="581" y2="133" stroke="black"/>
		<line x1="581" y1="133" x2="579" y2="221" stroke="black"/>
		<line x1="579" y1="221" x2="494" y2="225" stroke="black"/>
		<line x1="494" y1="225" x2="490" y2="132" stroke="black"/>
	</g>
	<g>
		<line x1="493" y1="139" x2="579" y2="135" stroke="black"/>
		<line x1="579" y1="135" x2="577" y2="219" stroke="black"/>
		<line x1="577" y1="219" x2="496" y2="220" stroke="black"/>
		<line x1="496" y1="220" x2="493" y2="139" stroke="black"/>
	</g>
	<g>
		<line x1="500" y1="143" x2="571" y2="141" stroke="black"/>
		<line x1="571" y1="141" x2="571" y2="217" stroke="black"/>
		<line x1="571" y1="217" x2="498" y2="214" stroke="black"/>
		<line x1="498" y1="214" x2="500" y2="143" stroke="black"/>
	</g>
	<g>
		<line x1="509" y1="154" x2="563" y2="153" stroke="black"/>
		<line x1="563" y1="153" x2="562" y2="204" stroke="black"/>
		<line x1="562" y1="204" x2="511" y2="204" stroke="black"/>
		<line x1="511" y1="204" x2="509" y2="154" stroke="black"/>
	</g>
	<g>
		<line x1="513" y1="155" x2="560" y2="155" stroke="black"/>
		<line x1="560" y1="155" x2="561" y2="202" stroke="black"/>
		<line x1="561" y1="202" x2="513" y2="202" stroke="black"/>
		<line x1="513" y1="202" x2="513" y2="155" stroke="black"/>
	</g>
	<g>
		<line x1="512" y1="154" x2="560" y2="155" stroke="black"/>
		<line x1="560" y1="155" x2="560" y2="201" stroke="black"/>
		<line x1="560" y1="201" x2="514" y2="202" stroke="black"/>
		<line x1="514" y1="202" x2="512" y2="154" stroke="black"/>
	</g>
	<g>
		<line x1="517" y1="159" x2="556" y2="159" stroke="black"/>
		<line x1="556" y1="159" x2="554" y2="196" stroke="black"/>
		<line x1="554" y1="196" x2="516" y2="197" stroke="black"/>
		<line x1="516" y1="197" x2="517" y2="159" stroke="black"/>
	</g>
	<g>
		<line x1="521" y1="162" x2="552" y2="162" stroke="black"/>
		<line x1="552" y1="162" x2="553" y2="195" stroke="black"/>
		<line x1="553" y1="195" x2="519" y2="194" stroke="black"/>
		<line x1="519" y1="194" x2="521" y2="162" stroke="black"/>
	</g>
	<g>
		<line x1="523" y1="164" x2="549" y2="164" stroke="black"/>
		<line x1="549" y1="164" x2="549" y2="191" stroke="black"/>
		<line x1="549" y1="191" x2="523" y2="192" stroke="black"/>
		<line x1="523" y1="192" x2="523" y2="164" stroke="black"/>
	</g>
	<g>
		<line x1="524" y1="166" x2="548" y2="165" stroke="black"/>
		<line x1="548" y1="165" x2="548" y2="190" stroke="black"/>
		<line x1="548" y1="190" x2="523" y2="190" stroke="black"/>
		<line x1="523" y1="190" x2="524" y2="166" stroke="black"/>
	</g>
	<g>
		<line x1="526" y1="168" x2="546" y2="168" stroke="black"/>
		<line x1="546" y1="168" x2="546" y2="188" stroke="black"/>
		<line x1="546" y1="188" x2="526" y2="188" stroke="black"/>
		<line x1="526" y1="188" x2="526" y2="168" stroke="black"/>
	</g>
	<g>
		<line x1="527" y1="169" x2="545" y2="168" stroke="black"/>
		<line x1="545" y1="168" x2="546" y2="187" stroke="black"/>
		<line x1="546" y1="187" x2="527" y2="187" stroke="black"/>
		<line x1="527" y1="187" x2="527" y2="169" stroke="black"/>
	</g>
	<g>
		<line x1="530" y1="172" x2="542" y2="172" stroke="black"/>
		<line x1="542" y1="172" x2="542" y2="184" stroke="black"/>
		<line x1="542" y1="184" x2="530" y2="184" stroke="black"/>
		<line x1="530" y1="184" x2="530" y2="172" stroke="black"/>
	</g>
	<g>
		<line x1="742" y1="58" x2="969" y2="66" stroke="black"/>
		<line x1="969" y1="66" x2="981" y2="291" stroke="black"/>
		<line x1="981" y1="291" x2="735" y2="298" stroke="black"/>
		<line x1="735" y1="298" x2="742" y2="58" stroke="black"/>
	</g>
	<g>
		<line x1="745" y1="57" x2="969" y2="60" stroke="black"/>
		<line x1="969" y1="60" x2="968" y2="286" stroke="black"/>
		<line x1="968" y1="286" x2="741" y2="290" stroke="black"/>
		<line x1="741" y1="290" x2="745" y2="57" stroke="black"/>
	</g>
	<g>
		<line x1="751" y1="61" x2="965" y2="61" stroke="black"/>
		<line x1="965" y1="61" x2="969" y2="295" stroke="black"/>
		<line x1="969" y1="295" x2="740" y2="287" stroke="black"/>
		<line x1="740" y1="287" x2="751" y2="61" stroke="black"/>
	</g>
	<g>
		<line x1="743" y1="70" x2="962" y2="68" stroke="black"/>
		<line x1="962" y1="68" x2="973" y2="290" stroke="black"/>
		<line x1="973" y1="290" x2="749" y2="289" stroke="black"/>
		<line x1="749" y1="289" x2="743" y2="70" stroke="black"/>
	</g>
	<g>
		<line x1="752" y1="78" x2="961" y2="75" stroke="black"/>
		<line x1="961" y1="75" x2="962" y2="282" stroke="black"/>
		<line x1="962" y1="282" x2="752" y2="287" stroke="black"/>
		<line x1="752" y1="287" x2="752" y2="78" stroke="black"/>
	</g>
	<g>
		<line x1="755" y1="70" x2="957" y2="75" stroke="black"/>
		<line x1="957" y1="75" x2="958" y2="284" stroke="black"/>
		<line x1="958" y1="284" x2="754" y2="284" stroke="black"/>
		<line x1="754" y1="284" x2="755" y2="70" stroke="black"/>
	</g>
	<g>
		<line x1="762" y1="78" x2="958" y2="81" stroke="black"/>
		<line x1="958" y1="81" x2="958" y2="275" stroke="black"/>
		<line x1="958" y1="275" x2="754" y2="280" stroke="black"/>
		<line x1="754" y1="280" x2="762" y2="78" stroke="black"/>
	</g>
	<g>
		<line x1="759" y1="88" x2="956" y2="79" stroke="black"/>
		<line x1="956" y1="79" x2="957" y2="269" stroke="black"/>
		<line x1="957" y1="269" x2="767" y2="274" stroke="black"/>
		<line x1="767" y1="274" x2="759" y2="88" stroke="black"/>
	</g>
	<g>
		<line x1="765" y1="85" x2="957" y2="83" stroke="black"/>
		<line x1="957" y1="83" x2="956" y2="267" stroke="black"/>
		<line x1="956" y1="267" x2="765" y2="272" stroke="black"/>
		<line x1="765" y1="272" x2="765" y2="85" stroke="black"/>
	</g>
	<g>
		<line x1="768" y1="82" x2="947" y2="87" stroke="black"/>
		<line x1="947" y1="87" x2="946" y2="267" stroke="black"/>
		<line x1="946" y1="267" x2="768" y2="273" stroke="black"/>
		<line x1="768" y1="273" x2="768" y2="82" stroke="black"/>
	</g>
	<g>
		<line x1="773" y1="95" x2="946" y2="92" stroke="black"/>
		<line x1="946" y1="92" x2="944" y2="264" stroke="black"/>
		<line x1="944" y1="264" x2="769" y2="263" stroke="black"/>
		<line x1="769" y1="263" x2="773" y2="95" stroke="black"/>
	</g>
	<g>
		<line x1="779" y1="94" x2="942" y2="93" stroke="black"/>
		<line x1="942" y1="93" x2="935" y2="258" stroke="black"/>
		<line x1="935" y1="258" x2="773" y2="260" stroke="black"/>
		<line x1="773" y1="260" x2="779" y2="94" stroke="black"/>
	</g>
	<g>
		<line x1="779" y1="103" x2="936" y2="102" stroke="black"/>
		<line x1="936" y1="102" x2="934" y2="252" stroke="black"/>
		<line x1="934" y1="252" x2="776" y2="253" stroke="black"/>
		<line x1="776" y1="253" x2="779" y2="103" stroke="black"/>
	</g>
	<g>
		<line x1="779" y1="102" x2="933" y2="101" stroke="black"/>
		<line x1="933" y1="101" x2="940" y2="259" stroke="black"/>
		<line x1="940" y1="259" x2="784" y2="258" stroke="black"/>
		<line x1="784" y1="258" x2="779" y2="102" stroke="black"/>
	</g>
	<g>
		<line x1="783" y1="105" x2="937" y2="105" stroke="black"/>
		<line x1="937" y1="105" x2="933" y2="256" stroke="black"/>
		<line x1="933" y1="256" x2="780" y2="251" stroke="black"/>
		<line x1="780" y1="251" x2="783" y2="105" stroke="black"/>
	</g>
	<g>
		<line x1="780" y1="104" x2="935" y2="100" stroke="black"/>
		<line x1="935" y1="100" x2="930" y2="252" stroke="black"/>
		<line x1="930" y1="252" x2="778" y2="257" stroke="black"/>
		<line x1="778" y1="257" x2="780" y2="104" stroke="black"/>
	</g>
	<g>
		<line x1="781" y1="98" x2="935" y2="104" stroke="black"/>
		<line x1="935" y1="104" x2="931" y2="252" stroke="black"/>
		<line x1="931" y1="252" x2="781" y2="257" stroke="black"/>
		<line x1="781" y1="257" x2="781" y2="98" stroke="black"/>
	</g>
	<g>
		<line x1="785" y1="102" x2="930" y2="107" stroke="black"/>
		<line x1="930" y1="107" x2="934" y2="253" stroke="black"/>
		<line x1="934" y1="253" x2="785" y2="255" stroke="black"/>
		<line x1="785" y1="255" x2="785" y2="102" stroke="black"/>
	</g>
	<g>
		<line x1="788" y1="104" x2="927" y2="110" stroke="black"/>
		<line x1="927" y1="110" x2="932" y2="250" stroke="black"/>
		<line x1="932" y1="250" x2="787" y2="251" stroke="black"/>
		<line x1="787" y1="251" x2="788" y2="104" stroke="black"/>
	</g>
	<g>
		<line x1="792" y1="113" x2="924" y2="113" stroke="black"/>
		<line x1="924" y1="113" x2="921" y2="241" stroke="black"/>
		<line x1="921" y1="241" x2="794" y2="244" stroke="black"/>
		<line x1="794" y1="244" x2="792" y2="113" stroke="black"/>
	</g>
	<g>
		<line x1="788" y1="109" x2="927" y2="108" stroke="black"/>
		<line x1="927" y1="108" x2="926" y2="242" stroke="black"/>
		<line x1="926" y1="242" x2="788" y2="246" stroke="black"/>
		<line x1="788" y1="246" x2="788" y2="109" stroke="black"/>
	</g>
	<g>
		<line x1="806" y1="124" x2="909" y2="125" stroke="black"/>
		<line x1="909" y1="125" x2="910" y2="229" stroke="black"/>
		<line x1="910" y1="229" x2="805" y2="231" stroke="black"/>
		<line x1="805" y1="231" x2="806" y2="124" stroke="black"/>
	</g>
	<g>
		<line x1="807" y1="126" x2="913" y2="126" stroke="black"/>
		<line x1="913" y1="126" x2="909" y2="227" stroke="black"/>
		<line x1="909" y1="227" x2="805" y2="230" stroke="black"/>
		<line x1="805" y1="230" x2="807" y2="126" stroke="black"/>
	</g>
	<g>
		<line x1="813" y1="133" x2="907" y2="130" stroke="black"/>
		<line x1="907" y1="130" x2="903" y2="225" stroke="black"/>
		<line x1="903" y1="225" x2="813" y2="225" stroke="black"/>
		<line x1="813" y1="225" x2="813" y2="133" stroke="black"/>
	</g>
	<g>
		<line x1="813" y1="129" x2="904" y2="134" stroke="black"/>
		<line x1="904" y1="134" x2="907" y2="225" stroke="black"/>
		<line x1="907" y1="225" x2="811" y2="223" stroke="black"/>
		<line x1="811" y1="223" x2="813" y2="129" stroke="black"/>
	</g>
	<g>
		<line x1="817" y1="136" x2="899" y2="134" stroke="black"/>
		<line x1="899" y1="134" x2="897" y2="221" stroke="black"/>
		<line x1="897" y1="221" x2="816" y2="218" stroke="black"/>
		<line x1="816" y1="218" x2="817" y2="136" stroke="black"/>
	</g>
	<g>
		<line x1="821" y1="139" x2="896" y2="140" stroke="black"/>
		<line x1="896" y1="140" x2="897" y2="216" stroke="black"/>
		<line x1="897" y1="216" x2="818" y2="219" stroke="black"/>
		<line x1="818" y1="219" x2="821" y2="139" stroke="black"/>
	</g>
	<g>
		<line x1="819" y1="138" x2="895" y2="138" stroke="black"/>
		<line x1="895" y1="138" x2="895" y2="216" stroke="black"/>
		<line x1="895" y1="216" x2="818" y2="218" stroke="black"/>
		<line x1="818" y1="218" x2="819" y2="138" stroke="black"/>
	</g>
	<g>
		<line x1="820" y1="140" x2="897" y2="138" stroke="black"/>
		<line x1="897" y1="138" x2="897" y2="217" stroke="black"/>
		<line x1="897" y1="217" x2="820" y2="216" stroke="black"/>
		<line x1="820" y1="216" x2="820" y2="140" stroke="black"/>
	</g>
	<g>
		<line x1="830" y1="151" x2="886" y2="152" stroke="black"/>
		<line x1="886" y1="152" x2="883" y2="205" stroke="black"/>
		<line x1="883" y1="205" x2="830" y2="205" stroke="black"/>
		<line x1="830" y1="205" x2="830" y2="151" stroke="black"/>
	</g>
	<g>
		<line x1="835" y1="155" x2="883" y2="154" stroke="black"/>
		<line x1="883" y1="154" x2="881" y2="202" stroke="black"/>
		<line x1="881" y1="202" x2="834" y2="203" stroke="black"/>
		<line x1="834" y1="203" x2="835" y2="155" stroke="black"/>
	</g>
	<g>
		<line x1="837" y1="155" x2="879" y2="157" stroke="black"/>
		<line x1="879" y1="157" x2="879" y2="200" stroke="black"/>
		<line x1="879" y1="200" x2="836" y2="201" stroke="black"/>
		<line x1="836" y1="201" x2="837" y2="155" stroke="black"/>
	</g>
	<g>
		<line x1="840" y1="160" x2="875" y2="160" stroke="black"/>
		<line x1="875" y1="160" x2="875" y2="196" stroke="black"/>
		<line x1="875" y1="196" x2="841" y2="197" stroke="black"/>
		<line x1="841" y1="197" x2="840" y2="160" stroke="black"/>
	</g>
	<g>
		<line x1="843" y1="163" x2="872" y2="163" stroke="black"/>
		<line x1="872" y1="163" x2="873" y2="193" stroke="black"/>
		<line x1="873" y1="193" x2="844" y2="193" stroke="black"/>
		<line x1="844" y1="193" x2="843" y2="163" stroke="black"/>
	</g>
	<g>
		<line x1="845" y1="165" x2="869" y2="165" stroke="black"/>
		<line x1="869" y1="165" x2="870" y2="190" stroke="black"/>
		<line x1="870" y1="190" x2="846" y2="189" stroke="black"/>
		<line x1="846" y1="189" x2="845" y2="165" stroke="black"/>
	</g>
	<g>
		<line x1="845" y1="166" x2="871" y2="166" stroke="black"/>
		<line x1="871" y1="166" x2="869" y2="191" stroke="black"/>
		<line x1="869" y1="191" x2="845" y2="190" stroke="black"/>
		<line x1="845" y1="190" x2="845" y2="166" stroke="black"/>
	</g>
	<g>
		<line x1="846" y1="166" x2="869" y2="166" stroke="black"/>
		<line x1="869" y1="166" x2="869" y2="190" stroke="black"/>
		<line x1="869" y1="190" x2="846" y2="189" stroke="black"/>
		<line x1="846" y1="189" x2="846" y2="166" stroke="black"/>
	</g>
	<g>
		<line x1="847" y1="167" x2="869" y2="166" stroke="black"/>
		<line x1="869" y1="166" x2="869" y2="189" stroke="black"/>
		<line x1="869" y1="189" x2="847" y2="189" stroke="black"/>
		<line x1="847" y1="189" x2="847" y2="167" stroke="black"/>
	</g>
	<g>
		<line x1="853" y1="172" x2="864" y2="173" stroke="black"/>
		<line x1="864" y1="173" x2="864" y2="184" stroke="black"/>
		<line x1="864" y1="184" x2="852" y2="183" stroke="black"/>
		<line x1="852" y1="183" x2="853" y2="172" stroke="black"/>
	</g>
	<g>
		<line x1="854" y1="174" x2="862" y2="174" stroke="black"/>
		<line x1="862" y1="174" x2="862" y2="182" stroke="black"/>
		<line x1="862" y1="182" x2="854" y2="182" stroke="black"/>
		<line x1="854" y1="182" x2="854" y2="174" stroke="black"/>
	</g>
	<g>
		<line x1="855" y1="175" x2="861" y2="175" stroke="black"/>
		<line x1="861" y1="175" x2="861" y2="181" stroke="black"/>
		<line x1="861" y1="181" x2="855" y2="181" stroke="black"/>
		<line x1="855" y1="181" x2="855" y2="175" stroke="black"/>
	</g>
	<g>
		<line x1="856" y1="177" x2="859" y2="177" stroke="black"/>
		<line x1="859" y1="177" x2="859" y2="180" stroke="black"/>
		<line x1="859" y1="180" x2="856" y2="179" stroke="black"/>
		<line x1="856" y1="179" x2="856" y2="177" stroke="black"/>
	</g>
	<g>
		<line x1="857" y1="177" x2="859" y2="177" stroke="black"/>
		<line x1="859" y1="177" x2="859" y2="179" stroke="black"/>
		<line x1="859" y1="179" x2="857" y2="179" stroke="black"/>
		<line x1="857" y1="179" x2="857" y2="177" stroke="black"/>
	</g>
</svg>